# xmcd
#
# Track frame offsets:
#	150
#	44360
#	80757
#	121885
#	146605
#	170562
#
# Disc length: 3785 seconds
#
# Revision: 1
# Processed by: cddbd v1.5.2PL0 Copyright (c) Steve Scherf et al.
# Submitted via: CDmax 2.0
#
DISCID=4f0ec706
DTITLE=Eric Clapton - Remark You Made (disc3)
DYEAR=1987
DGENRE=Blues
TTITLE0=Crossroads
TTITLE1=White Room
TTITLE2=I Shot the Sheriff
TTITLE3=Wonderful Tonight
TTITLE4=Run
TTITLE5=Same Old Blues
EXTD=Eric Clapton\tguitar, vocals\nAlan Clark\tkeyboards\nNathan East\tbass
EXTD=, background vocals\nSteve Ferrone\tdrums\n\nRecorded live at Budokan, T
EXTD=okyo, Japan on November 4th, 1987
EXTT0=
EXTT1=
EXTT2=
EXTT3=
EXTT4=
EXTT5=
PLAYORDER=
